# xmcd
#
# Track frame offsets:
# 150
# 10486
# 22493
# 32001
# 37032
# 47165
# 59102
# 70347
# 87066
# 98437
# 114529
# 130171
# 142527
# 158374
# 169290
# 174350
# 186244
# 199264
# 211432
# 223361
# 235033
# 246944
# 258087
# 268192
# 277114
# 290775
# 302391
# 320852
#
# Disc length: 4410 seconds
#
#
# Revision: 0
# Processed by: cddbd v1.5.1PL0 Copyright (c) Steve Scherf et al.
# Submitted via: FreeRIP 2.94 
#
DISCID=aa11381c
DTITLE=Elvis Presley - Sun Sessions
DYEAR=1900
DGENRE=Rockabilly
TTITLE0=Come Back Baby Come Back
TTITLE1=Blue Moon
TTITLE2=Blue Moon of Kentucky
TTITLE3=Blue Moon of Kentucky - slower version
TTITLE4=I Heard the News, There's Good Rockin' Tonight
TTITLE5=Unknown Title - Slow
TTITLE6=When I'm With My Baby
TTITLE7=When I'm With My Baby - older version
TTITLE8=I forgot to remember to forget
TTITLE9=I love you because you're you
TTITLE10=I love you because you're you
TTITLE11=I love you because you're you
TTITLE12=I love you because you're you
TTITLE13=I never let you go
TTITLE14=I never let you go - studio version
TTITLE15=You're right I'm left She's Gone
TTITLE16=You're Right I'm Left She's Gone - slow version
TTITLE17=You're Right I'm Left She's Gone - studio
TTITLE18=You're Right I'm Left She's Gone - studio
TTITLE19=Just Because
TTITLE20=Milk Cow
TTITLE21=Train I Ride
TTITLE22=That's Allright - skips
TTITLE23=That's Allright
TTITLE24=Tomorrow Night Will You Remember
TTITLE25=I've Been Travelin' Trying To Get To You
TTITLE26=You Know What It Takes - studio version
TTITLE27=You're a Heartbreaker
EXTD=
EXTT0=
EXTT1=
EXTT2=
EXTT3=
EXTT4=
EXTT5=
EXTT6=
EXTT7=
EXTT8=
EXTT9=
EXTT10=
EXTT11=
EXTT12=
EXTT13=
EXTT14=
EXTT15=
EXTT16=
EXTT17=
EXTT18=
EXTT19=
EXTT20=
EXTT21=
EXTT22=
EXTT23=
EXTT24=
EXTT25=
EXTT26=
EXTT27=
PLAYORDER=
